<?xml version="1.0" standalone="no"?>
<!DOCTYPE svg PUBLIC "-//W3C//DTD SVG 20010904//EN"
 "http://www.w3.org/TR/2001/REC-SVG-20010904/DTD/svg10.dtd">
<svg version="1.0" xmlns="http://www.w3.org/2000/svg"
 width="700.000000pt" height="700.000000pt" viewBox="0 0 700.000000 700.000000"
 preserveAspectRatio="xMidYMid meet">
<metadata>
Created by potrace 1.11, written by Peter Selinger 2001-2013
</metadata>
<g transform="translate(0.000000,700.000000) scale(0.100000,-0.100000)"
fill="#000000" stroke="none">
<path d="M726 6374 c-37 -7 -91 -21 -120 -30 -71 -23 -220 -100 -264 -138
-218 -182 -331 -404 -338 -666 -9 -315 134 -592 396 -767 59 -39 131 -72 260
-118 58 -21 107 -40 109 -42 2 -1 -19 -51 -47 -110 -84 -177 -141 -365 -158
-524 -15 -129 -7 -302 17 -409 6 -25 12 -54 15 -64 33 -163 178 -430 310 -573
l23 -25 -21 -51 c-11 -29 -24 -63 -30 -77 -5 -14 -15 -38 -23 -55 -8 -16 -43
-102 -78 -190 -36 -88 -115 -282 -176 -432 -61 -150 -111 -285 -111 -301 0
-16 23 -100 51 -188 28 -87 82 -258 121 -379 83 -261 136 -427 150 -475 18
-60 46 -106 75 -126 37 -24 117 -23 278 2 16 3 36 6 44 6 28 2 88 74 94 112 6
39 -11 99 -170 597 -52 162 -67 220 -59 230 6 8 49 48 96 89 112 99 159 141
184 165 12 11 59 54 106 95 46 41 91 82 100 90 22 20 152 136 275 246 55 49
106 95 113 102 8 6 17 10 20 8 4 -2 198 -113 432 -247 234 -133 481 -269 550
-300 181 -82 386 -148 560 -179 68 -12 73 -13 180 -25 91 -11 260 -13 333 -4
34 4 88 10 120 14 32 3 64 8 71 11 7 3 60 -51 122 -122 60 -70 114 -132 119
-138 6 -6 39 -45 75 -86 36 -41 70 -80 75 -86 6 -6 77 -87 158 -181 139 -160
175 -192 227 -200 8 -1 44 -5 80 -8 36 -3 106 -10 155 -16 50 -5 113 -12 140
-14 79 -7 168 -16 195 -20 14 -2 59 -6 100 -10 41 -4 89 -8 105 -10 17 -2 64
-7 105 -11 41 -3 83 -8 93 -10 10 -2 59 -6 110 -9 81 -6 96 -4 124 14 18 11
39 31 48 44 17 27 45 147 40 174 -2 10 -4 23 -4 30 -1 7 -14 28 -31 46 -35 40
-71 51 -215 67 -55 6 -113 13 -130 16 -50 7 -436 54 -494 60 -60 6 -92 12 -97
16 -2 3 -252 513 -341 698 l-41 85 31 27 32 26 30 -32 c17 -18 55 -61 85 -97
30 -35 57 -66 60 -69 3 -3 32 -36 64 -73 67 -76 97 -93 188 -102 35 -3 81 -8
103 -10 44 -5 125 -13 195 -20 25 -2 68 -7 95 -10 28 -3 78 -7 111 -10 34 -2
74 -6 90 -9 16 -2 65 -7 109 -11 44 -4 87 -8 95 -10 8 -2 53 -6 100 -10 47 -4
94 -9 105 -11 39 -8 110 -6 135 4 65 25 103 107 103 220 0 74 -55 125 -148
137 -27 3 -63 8 -80 10 -16 2 -73 9 -125 16 -52 6 -103 13 -112 14 -10 2 -48
6 -86 10 -38 3 -80 8 -93 10 -13 3 -49 7 -79 10 -30 3 -64 7 -75 10 -24 5
-143 18 -168 19 -10 0 -41 32 -74 76 -31 41 -59 77 -63 80 -3 3 -23 30 -45 60
-22 30 -42 57 -45 60 -3 3 -33 41 -66 85 l-61 81 31 57 c17 31 35 57 41 57 5
-1 39 -23 75 -51 169 -129 436 -219 641 -213 262 6 471 80 692 243 57 42 85
91 82 143 -3 56 15 35 -309 371 l-181 189 0 121 c-1 104 -4 131 -24 182 -30
74 -76 148 -127 199 l-38 39 67 196 c37 108 67 204 67 213 0 42 -32 95 -69
116 -64 36 -100 30 -256 -43 -80 -37 -85 -37 -85 -12 0 12 11 91 23 174 13 84
22 170 20 190 -8 79 -86 134 -167 119 -40 -8 -77 -41 -231 -210 -49 -54 -103
-112 -120 -130 -27 -28 -205 -219 -280 -301 -16 -18 -77 -83 -135 -145 -58
-62 -112 -121 -120 -130 -9 -10 -63 -69 -121 -131 -58 -63 -121 -131 -140
-151 -19 -21 -38 -38 -44 -38 -5 0 -82 27 -170 59 -391 145 -521 192 -535 195
-8 3 -51 18 -95 35 -44 16 -197 73 -340 125 -143 52 -336 122 -430 156 -93 35
-199 73 -235 85 -36 13 -153 55 -260 95 -107 39 -213 78 -235 85 -22 7 -139
50 -260 95 -121 45 -281 103 -355 130 -225 81 -318 115 -480 174 -85 32 -236
87 -335 122 -99 36 -189 69 -200 74 -11 5 -31 12 -44 15 -50 15 -147 81 -206
140 -67 68 -123 165 -151 260 -23 80 -23 230 0 310 48 164 164 305 310 375
140 67 274 80 428 40 97 -25 111 -25 159 2 89 50 93 183 7 236 -91 56 -338 85
-482 56z"/>
<path d="M6789 1375 c-2 -2 -22 -4 -44 -6 -84 -6 -174 -79 -195 -160 -47 -174
106 -330 279 -285 166 43 226 249 108 373 -36 38 -136 91 -148 78z"/>
</g>
</svg>
